<?xml version="1.0" encoding="UTF-8"?><svg id="Capa_2" xmlns="http://www.w3.org/2000/svg" viewBox="0 0 793.54 336.45"><defs><style>.cls-1{fill:none;}</style></defs><g id="Capa_1-2"><path class="cls-1" d="M197.22,267.35c-.5-1.58-.79-2.95-.82-4.31-1.39,3.88-2.16,6.49-2.36,7.44,1.65.2,3.09.19,3.89.06.04-.54-.09-1.65-.7-3.19Z"/><path class="cls-1" d="M327.57,145.54c-3.78,10.27-5.54,21.58-5.54,35.58v5.33c3.46-1.77,7.52-2.88,11.94-3.25-1.5-2.35-2.7-4.8-3.61-7.32-3.61-10.06-2.61-21.42-1.52-33.46-.44.98-.88,2.03-1.28,3.11Z"/><path class="cls-1" d="M431.98,168.47c-3.36,9.12-4.93,19.11-4.93,31.45v4.62c1.6-.84,3.34-1.51,5.2-2.03.2-4.23.46-8.54.78-12.92-1.37-7.38-.69-15.44.08-23.88-.39.87-.78,1.8-1.13,2.76Z"/><path class="cls-1" d="M212.65,124.45c.12-.37.38-1.16.54-1.78-.88-.03-2.23.06-2.77.1-3.54.28-5.69,1-6.35,2.16.09.08.21.17.37.29l.33.31c10.16,11.7,11.56,32.13,11.56,52.46,0,11.84-.89,21.81-2.54,31.05,2.22-10.77,3.48-21.6,3.83-32.61.32-12.85-1.39-26.97-4.69-38.74-1.87-6.3-1.91-7.91-.28-13.24Z"/><path class="cls-1" d="M703.2,122.7c-4.27,11.57-6.25,24.26-6.25,39.9v5.87c3.92-2.05,8.51-3.36,13.51-3.86-1.69-2.6-3.06-5.32-4.08-8.12-4.08-11.15-2.97-23.86-1.73-37.31-.5,1.1-.99,2.29-1.44,3.51Z"/><path d="M789,231.9c-3.15-11.73-7.6-19.68-9.06-22.31-2.84-5.08-14.33-18.95-16.82-21.92,5-2.76,10.66-8.89,10.72-8.97,5.02-5.61,17.28-32.33,10.28-64.31-4.72-21.56-14.91-38.46-30.3-50.23-11.35-8.69-24.28-13.91-39.52-15.97-9.22-1.24-38.18-.43-44.92,1.27-16.11,4.21-28.42,13.85-37.85,26.46-2.08-.12-4.25-.1-6.5.08-13.93,1.13-22.54,7.38-30.67,22.24-5.28,8.86-9.06,19.02-10.33,27.74-.09.44-.16.84-.21,1.21-10.27-17.01-22.38-32.47-32.47-39.05-7-4.84-18.08-6.28-27.55-3.59-2.8.77-5.49,2.15-8.01,3.98-7.97-3.9-17.46-5.6-28.2-4.98-21.22,1.13-33.1,12.12-40.26,27.41-2.14-.49-4.33-.91-6.59-1.22-7.27-.98-30.08-.34-35.4,1-5.47,1.43-10.36,3.68-14.78,6.53-4.65-8.93-10.77-16.56-18.4-22.72-9.95-8.02-21.3-13.01-34.7-15.25-8.16-1.36-33.83-1.41-39.83-.08-12.8,2.98-22.92,9.9-30.96,19.17-10.84-13.32-23.93-22.82-38.66-27.55-6.56-2.36-12.74-3.51-18.91-3.51-8.06,0-16.49,2.09-26.53,6.57-4.47,2.03-8.8,4.58-12.96,7.58-2.78-6.9-5.99-12.4-9.7-16.65-12.18-13.15-27.84-14.92-41.55-14.92-17,0-34.51,2.37-47.49,19.57-8.69,11.78-10.52,23.21-7.84,48.94.91,8.02,3.75,24.04,6.16,31.06l1.07,4.36c-2.56-.51-5.19-.78-7.9-.78-25.72,0-49.08,21.8-58.13,54.25-4.57,16.37-5.42,32.54-2.62,49.46,6.52,39.34,33.62,77.01,56.86,79.04,1.98.17,7.94.42,13.03.53,1.94.04,3.77.07,5.84.07,4.41,0,9.91-.11,19.81-.36,15.05-.39,17.8-.47,18.61-.64,5.4-1.11,14.05-4.09,26.82-17.24,1.28-1.31,2.5-2.64,3.68-3.96,5.63,8.6,12.57,15.11,21.43,18.23,4.15,1.46,11.78,1.77,28.5,2.43,7.26.29,14.66.58,21.25.58,5.92,0,11.19-.24,15.13-.93,9.8-1.72,18.91-7.71,27.06-16.61,7.46,9.4,16.51,15.35,26.59,17.11,1.77.38,15.12.41,47.46.41h25.42c.21,0,.42,0,.63,0,8.09,0,15.64-1.94,22.02-5.6,4.2,2.88,8.74,4.83,13.56,5.67,1.57.33,13.41.36,42.12.36h22.75c.19,0,.38,0,.57,0,5.78,0,11.26-1.09,16.15-3.16,2.58.36,6.3.37,13.89.37h.63c12.19-.23,17.81-.79,22.48-3.66,1.03.68,2.02,1.23,2.9,1.59,1.76.86,5.14,1.6,7.61,1.99,6.81.76,8.14.77,12.92.07,8.96-1.06,10.05-1.62,14.54-7.37,9.66-11.54,15.06-32.4,16.75-46.73l.16-1.22c7.11,15.31,15.42,29.42,24.38,39.56,9.98,11.84,14.63,15.41,26.06,16.27,1.87.22,3.9.33,5.98.33,5.1,0,10.47-.64,14.3-1.82,1.3-.55,2.55-1.32,3.75-2.26,4.24,2.36,8.72,4.02,13.4,4.84,1.99.42,17.02.46,53.44.46h28.88c.24,0,.48,0,.73,0,10.09,0,19.46-2.58,27.15-7.48,18.12-11.54,22.19-32.56,24.89-46.47,4.4-22.68-.43-40.69-2.76-49.35ZM786.75,280.27c-2.69,13.83-6.36,32.78-22.63,43.14-7.04,4.48-15.71,6.79-25.1,6.67h-28.91c-24.66,0-50.17,0-52.48-.37-3.67-.64-7.21-1.84-10.59-3.56,4.03-4.81,7.33-11.51,9.88-18.23,2.33,1.44,4.56,2.33,6.31,2.85l.65-2.18c-1.7-.51-3.89-1.38-6.16-2.84,2.72-7.62,4.48-15.01,5.25-19.38l1.3-8.07.7-81.52.04-3.15q.93-81.51-1.77-89.95l-.51-1.6c-4.46-14.07-13.04-22.65-25.11-25.32,8.51-10.66,19.29-18.76,33.02-22.35,6.22-1.57,34.33-2.33,42.97-1.16,14.33,1.93,26.47,6.83,37.1,14.96,14.4,11.02,23.97,26.93,28.42,47.27,6.64,30.32-5.17,55.42-9.08,59.8-3,3.23-8.51,7.96-10.65,8.55-.09-.09-.18-.17-.27-.26-4.31-4.76-9.31-8.75-14.87-11.85-10.42-5.8-20.64-7.27-27.75-7.4-2.32-3.02-4.11-6.24-5.33-9.58-3.73-10.2-2.6-22.5-1.4-35.53.63-6.85.52-8.97-.54-10.3l-1.12-1.24-1.47.23c-3.44.55-7.45,10.94-8.22,13.02-4.48,12.16-6.57,25.4-6.57,41.67v9.28c-7.59,6.37-13.19,17.51-14.5,28.95-.45,3.27-.49,6.61-.15,9.93.31,3.21,1.04,6.97,2.57,10.96,1.86,5,4.61,9.65,8.14,13.57,2.58,2.87,5.21,4.87,6.54,5.81,3.88,2.73,8.74,4.85,14.06,6.15,3.81,1.05,7.86,1.54,12.02,1.49,3.63.05,6.39-.32,7.16-.93l.98-.77v-2.4s-.87-.76-.87-.76c-.88-.77-1.79-.66-2.59-.57-1.5.18-2.99.28-4.45.32-2.87-.02-6.78-.3-10.98-1.32-4.03-1.12-17.47-5.8-24.15-19.85-.04-.09-.09-.19-.13-.28-1.97-4.47-3.14-9.36-3.37-14.21-.1-2.67.1-4.74.21-5.86.02-.21.04-.41.06-.62.03-.19.05-.38.08-.57.58-3.74,1.73-7.4,3.42-10.85,1.51-3.09,3.47-6.14,6.05-9.39l4.27-5.76c4.61-3.42,10.8-5.34,17.81-5.51h.01s1.22.01,1.22.01c.68,0,1.41.01,2.17.04,11.97.64,25.81,6.14,37.98,17.61.23.26.47.52.7.78.17.17.38.34.64.51.7.69,1.39,1.4,2.08,2.14,3.81,4.52,14.22,17.22,16.66,21.59,1.38,2.48,5.6,10.02,8.58,21.13,2.22,8.29,6.85,25.53,2.68,47.05ZM619.64,329.29c-9.62-.72-13.29-3.07-23.17-14.78-19.2-21.73-35.38-62.36-42.9-93.01l-.76-2.95c-1.72-6.73-1.88-7.37-3.62-7.37-.07,0-.14,0-.21,0-1.21.03-1.99.83-2.3,2.31-.83,3.55,6.7,31.71,9.76,39.93,1.15,3.09,3.54,9.51,5.34,13.8l3.02,7.21-.53,4.06c-1.75,14.84-7.3,34.35-15.81,44.52-3.7,4.75-3.78,4.84-11.71,5.78-4.43.64-5.43.63-11.77-.07-2.55-.4-5.24-1.08-6.4-1.64-.31-.13-.65-.3-.99-.49,1.28-1.2,2.61-2.63,4.1-4.33,8.09-9.59,13.55-21.6,16.71-36.76l1.14-6.33.32-69.23.21-27.14c.2-26.23.36-46.94.36-50.91,0-8.87,0-9.4-1.53-15.04-2.24-6.55-4.05-10.77-7.71-15.65h-.01c-3.15-4.14-6.89-7.55-11.14-10.25,1.59-.96,3.24-1.7,4.92-2.17,8.17-2.32,17.99-1.1,23.93,3.01,17.99,11.71,44.07,55.49,51.15,80.87.62,2.21,1.17,4.11,3.23,3.84.46-.06,1.97-.44,1.97-2.46.42-4.35-9.23-29.25-14.43-39.4l-.5-.98q-2.43-4.79-1.99-6.92c1.2-8.18,4.85-18,9.82-26.34,7.45-13.62,14.83-19.05,27.23-20.05,16.5-1.33,27.98,6.63,33.17,23.01l.52,1.63q2.49,7.77,1.56,88.57l-.7,84.19-1.27,7.87c-2.68,15.11-10.91,38.28-20.63,42.4-4.6,1.4-12.47,1.94-18.38,1.24ZM437.42,331.9c-19.43,0-39.53,0-41.36-.29-3.74-.65-7.31-2.06-10.66-4.12,5.38-3.97,9.21-8.96,12-14.28,2.27,1.63,4.51,2.56,6.19,3.06l.51-1.72c-1.59-.48-3.73-1.36-5.88-2.96,3.96-8.23,5.65-17.04,6.95-23.9,3.82-20.04-.38-36.02-2.39-43.7-2.73-10.42-6.6-17.51-7.87-19.85-2.43-4.47-11.88-16.23-14.68-19.68,4.38-2.39,9.3-7.74,9.36-7.81,4.36-4.9,15.03-28.4,8.95-56.84-1.45-6.79-3.53-13.05-6.17-18.83,4.17-2.79,8.78-4.98,13.94-6.33,4.9-1.23,27.05-1.83,33.86-.91,11.3,1.53,20.86,5.38,29.24,11.79,11.35,8.69,18.89,21.22,22.4,37.25,5.23,23.9-4.07,43.67-7.15,47.12-2.36,2.55-6.71,6.27-8.4,6.74l-.22-.21c-3.4-3.75-7.34-6.89-11.72-9.33-8.21-4.57-16.26-5.73-21.87-5.83-1.83-2.38-3.24-4.92-4.2-7.55-2.94-8.04-2.05-17.73-1.11-28,.5-5.4.41-7.07-.43-8.12l-.88-.98-1.16.18c-2.77.44-6.1,9.25-6.48,10.26-3.53,9.58-5.18,20.02-5.18,32.84v7.31c-5.98,5.02-10.39,13.8-11.42,22.8-.35,2.56-.39,5.17-.12,7.77.24,2.54.81,5.51,2.02,8.68,1.47,3.95,3.64,7.62,6.42,10.72,1.51,1.67,3.33,3.3,5.15,4.58,3.06,2.15,6.89,3.83,11.08,4.85,3,.82,6.17,1.22,9.47,1.17,2.88.04,5.04-.25,5.65-.73l.77-.61v-1.88s-.68-.6-.68-.6c-.69-.61-1.41-.53-2.05-.45-1.18.14-2.35.22-3.49.25-2.26-.01-5.35-.24-8.66-1.04-3.17-.88-13.77-4.57-19.03-15.64-.04-.08-.08-.17-.12-.25-1.55-3.51-2.46-7.35-2.65-11.15-.08-2.12.08-3.75.17-4.64.02-.17.03-.34.05-.51.02-.14.04-.28.06-.43.46-2.95,1.36-5.83,2.69-8.56,1.19-2.43,2.73-4.84,4.77-7.4l3.37-4.54c3.63-2.69,8.51-4.21,14.04-4.34h0s.96,0,.96,0c.47,0,.93,0,1.42.02,9.51.43,20.56,4.78,30.29,13.96.16.18.32.36.48.54.13.13.29.26.48.38.57.56,1.14,1.14,1.7,1.74,4.03,4.81,11.3,13.77,13.09,16.98,1.09,1.95,4.41,7.89,6.76,16.65,1.75,6.53,5.4,20.12,2.11,37.08-2.12,10.9-5.01,25.83-17.83,33.99-5.54,3.53-12.36,5.36-19.78,5.26h-22.78ZM287.08,330.64c-9.25-1.62-17.56-7.24-24.44-16.15,4.06-4.95,7.86-10.61,11.34-16.85,1.12,2.61,2.68,5.02,4.63,7.06,3.5,3.66,7.43,5.39,10.11,6.2l.59-1.93c-2.45-.74-6.04-2.33-9.24-5.67-2.16-2.25-3.81-5.01-4.83-7.99,13.43-25.1,22.03-58.5,23.33-89.47.81-19.41-2.48-37.84-2.62-38.62-.87-4.76-1.75-8.38-2.33-10.78l-.17-.72c-5.07-21.16-13.26-39.27-23.83-53.51,7.53-9.03,17.02-15.76,29.02-18.55,5.52-1.23,30.43-1.15,38.08.13,12.62,2.11,23.29,6.79,32.61,14.31,12.59,10.15,20.94,24.51,24.82,42.66,5.77,26.99-4.49,49.05-7.89,52.87-2.59,2.8-7.36,6.89-9.23,7.41-.08-.08-.16-.16-.24-.23-3.77-4.29-8.14-7.9-13.01-10.74-7.36-4.29-15.78-6.71-24.41-7.03-2.06-2.75-3.65-5.66-4.73-8.68-3.3-9.19-2.3-20.17-1.24-31.79.55-6.08.46-7.97-.46-9.16l-.98-1.12-1.32.2c-3.06.47-6.6,9.65-7.28,11.49-3.97,10.79-5.82,22.59-5.82,37.14v8.3c-6.74,5.6-11.7,15.5-12.86,25.73-.4,2.94-.44,5.95-.12,8.94.28,2.83.91,6.13,2.23,9.65,1.65,4.53,4.1,8.76,7.25,12.32,1.69,1.92,3.75,3.78,5.79,5.25,3.43,2.47,7.73,4.42,12.44,5.62,3.39.97,6.97,1.45,10.72,1.43,3.15.06,5.53-.24,6.22-.77l.88-.68v-2.12s-.75-.67-.75-.67c-.77-.69-1.58-.6-2.29-.52-1.31.15-2.6.23-3.88.24-2.53-.04-5.99-.32-9.71-1.27-3.57-1.03-15.48-5.35-21.41-18-.05-.11-.1-.21-.15-.32-1.73-3.99-2.76-8.33-2.97-12.63-.1-2.45.09-4.33.18-5.35.02-.19.04-.37.06-.56.02-.17.05-.33.07-.5.51-3.35,1.53-6.61,3.03-9.69,1.34-2.75,3.08-5.45,5.37-8.32l3.78-5.09c4.07-2.98,9.53-4.59,15.71-4.63l1.08.03c.58,0,1.19.03,1.83.06,10.55.74,22.76,5.88,33.49,16.34.18.2.36.41.54.62.14.14.32.3.53.44.63.65,1.26,1.31,1.89,2,4.47,5.49,12.52,15.72,14.49,19.34,1.21,2.21,4.87,8.95,7.47,18.83,1.93,7.36,5.95,22.68,2.32,41.71-2.33,12.25-5.53,29.02-19.69,38.19-6.14,3.97-13.76,6.01-21.94,5.92h-25.44c-21.89,0-44.53,0-46.6-.33ZM196.36,330.55c-15.27-.61-23.69-.94-27.22-2.19-8.2-2.89-14.65-9.18-19.92-17.56,4.46-5.38,8.14-10.69,11.1-15.52.43.52.85,1.05,1.32,1.53,3.93,4.07,8.35,6,11.36,6.9l.65-2.18c-2.75-.82-6.78-2.58-10.37-6.3-.61-.63-1.19-1.31-1.73-2.01,6.24-10.62,8.95-18.54,9.14-19.09,4.26-12.79,8.45-37.37,10.68-62.64,1.28-14.9,1.28-58.07,0-72.2-2.34-23.1-5.62-40.53-10.17-53.52,4.21-3.13,8.61-5.76,13.16-7.82,9.45-4.22,17.3-6.19,24.73-6.19,5.66,0,11.36,1.06,17.5,3.27,29.62,9.51,52.43,39.29,62.6,81.72l.18.73c.57,2.35,1.43,5.91,2.27,10.54.03.18,3.35,18.75,2.56,37.65-2.32,55.3-27.94,118.56-62.37,124.6-7.87,1.38-21.89.82-35.46.28ZM71.61,331.29c-5.43-.12-11.05-.37-12.7-.51-18.71-1.63-45.63-34.65-52.28-74.8-2.68-16.16-1.86-31.62,2.5-47.26,8.43-30.22,29.82-50.52,53.23-50.52s40.52,22.1,46.79,59.23c.34,1.59.56,2.85.72,4.07.75,5.76.67,9.86.58,14.62-.03,1.56-.06,3.18-.07,4.95-.05,14.48.95,15.48,1.38,15.91l.76.75,2.42-.03.75-1.11c1.2-1.77,5.88-37.71-6.48-68.84-6.33-15.94-17.48-28.16-31.46-34.45l-2.66-1.11-.98-3.99-.07-.23c-2.09-6.02-4.97-21.37-5.95-30.05-2.52-24.2-.92-34.81,6.86-45.35,11.62-15.4,27.73-17.52,43.4-17.52,12.61,0,26.96,1.58,37.76,13.23,9.98,11.43,16.4,34.15,20.18,71.49,1.26,13.92,1.26,56.56,0,71.27-2.2,24.9-6.29,49.03-10.44,61.47-.3.9-7.53,22.18-26.93,42.15-11.79,12.13-19.45,14.82-24.09,15.78-.88.11-7.98.3-17.81.55-14.46.37-19.45.43-25.41.3ZM330.37,175.89c.91,2.52,2.11,4.97,3.61,7.32-4.42.37-8.48,1.47-11.94,3.25v-5.33c0-14,1.76-25.31,5.54-35.58.4-1.09.84-2.14,1.28-3.11-1.1,12.03-2.1,23.4,1.52,33.46ZM433.03,189.59c-.32,4.38-.58,8.69-.78,12.92-1.85.52-3.6,1.19-5.2,2.03v-4.62c0-12.33,1.57-22.33,4.93-31.45.36-.96.74-1.89,1.13-2.76-.78,8.45-1.45,16.51-.08,23.88ZM436.27,199.04c.44.83.9,1.67,1.42,2.47-.53.05-1.05.15-1.57.22.04-.9.09-1.79.14-2.7ZM483.25,329.26c13.31-9.23,16.44-25.18,18.51-35.84,3.47-17.87-.34-32.07-2.17-38.89-2.48-9.24-5.98-15.51-7.14-17.58-2.22-3.97-11.06-14.65-13.26-17.27,3.94-2.18,8.4-7,8.45-7.06,3.95-4.42,13.62-25.48,8.1-50.68-3.72-16.99-11.75-30.3-23.88-39.59-6.24-4.77-13.1-8.19-20.74-10.39,6.85-14.56,17.72-23.54,36.66-24.55,1.35-.08,2.69-.12,4-.12,15.68,0,28.19,5.57,36.35,16.23,3.37,4.49,4.99,8.28,7.1,14.46,1.36,5.03,1.36,5.19,1.36,13.91,0,3.96-.16,24.66-.36,50.88l-.21,27.15-.28,68.73-1.1,6.11c-3.01,14.47-8.2,25.92-15.84,34.98-7.14,8.14-9.13,9.19-27.4,9.54-3.4,0-6.03,0-8.13-.03ZM706.38,156.5c1.02,2.8,2.39,5.51,4.08,8.12-5.01.49-9.6,1.81-13.51,3.86v-5.87c0-15.65,1.99-28.33,6.25-39.9.45-1.22.95-2.41,1.44-3.51-1.24,13.45-2.35,26.16,1.73,37.31Z"/><path d="M769.62,138.88l2.66.05c.22-12.72-2.48-25.44-7.82-36.79-4-8.52-9.42-16.26-16.1-23l-1.89,1.87c6.46,6.53,11.71,14.01,15.58,22.26,5.16,10.99,7.78,23.31,7.57,35.62Z"/><path d="M704.15,220.21c-2.51-4.59-2.12-9.36-1.67-11.79l-2.61-.49c-.52,2.78-.95,8.24,1.95,13.55,3.63,6.65,11.19,10.72,19.63,10.72.68,0,1.37-.03,2.06-.08l-.21-2.65c-8.2.64-15.72-2.99-19.15-9.26Z"/><path d="M629.88,92.96c6.52,2.93,11.02,6.91,13.39,11.83,1.54,3.2,1.85,6.28,1.93,19.38.04,5.92.02,11.91-.07,17.83l2.2.03c.08-5.93.11-11.94.07-17.87-.09-13.52-.43-16.75-2.15-20.32-2.6-5.4-7.47-9.74-14.47-12.89l-.9,2.01Z"/><path d="M586.89,277.71c-5.02-9.11-8.66-18.87-10.81-29.02l-2.23.47c2.2,10.37,5.91,20.34,11.05,29.65,6.18,11.19,14.32,21.31,24.21,30.07l1.51-1.71c-9.69-8.59-17.68-18.5-23.72-29.47Z"/><path d="M513.13,106.65c3.37,2.83,5.99,6.13,7.78,9.81,2.21,4.53,2.69,8.73,3.2,13.18.18,1.6.31,3.15.39,9.76.06,4.94.06,10.02,0,15.11l1.94.02c.06-5.1.06-10.2,0-15.16-.08-6.71-.21-8.3-.4-9.96-.53-4.61-1.03-8.97-3.39-13.81-1.91-3.93-4.7-7.44-8.28-10.45l-1.25,1.49Z"/><path d="M484.17,180.31l2.1.04c.17-10.02-1.96-20.05-6.16-28.99-3.15-6.71-7.42-12.81-12.69-18.12l-1.49,1.47c5.1,5.15,9.23,11.05,12.28,17.54,4.07,8.66,6.13,18.36,5.96,28.07Z"/><path d="M432.58,244.39c-1.98-3.62-1.67-7.37-1.32-9.29l-2.06-.38c-.41,2.19-.75,6.49,1.54,10.68,2.86,5.24,8.82,8.45,15.47,8.45.54,0,1.08-.02,1.63-.06l-.16-2.09c-6.48.5-12.39-2.36-15.09-7.3Z"/><path d="M379.26,129.54c4.51,9.87,6.79,20.86,6.6,31.78l2.35.04c.19-11.28-2.17-22.62-6.82-32.8-3.49-7.65-8.23-14.65-14.07-20.8l-1.71,1.62c5.66,5.96,10.25,12.74,13.63,20.15Z"/><path d="M328.41,232.76c-2.22-4.14-1.88-8.4-1.48-10.58l-2.32-.43c-.46,2.48-.84,7.35,1.72,12.12,3.24,6.04,10.03,9.77,17.57,9.76.52,0,1.04-.02,1.57-.05l-.16-2.35c-7.24.49-13.87-2.83-16.9-8.48Z"/><path d="M216.82,125.78c.74-2.25,1.45-4.38.18-6.02-1.33-1.72-3.77-1.56-6.89-1.35-3.93.31-8.63,1.17-10.2,5.13l-.08.25c-.55,2.07-.09,3.3,1.79,4.78,10.35,12.14,10.35,37.31,10.35,49.43,0,29.36-5.11,45.8-15.92,73.83-3.09,7.48-6.42,16.81-6.42,18.84,0,2.19.38,3.22,2.72,3.96l.32.07c1.16.18,2.54.31,3.84.31,1.13,0,2.2-.1,3-.35.99-.25,1.8-.91,2.28-1.85,1.14-2.23.19-5.39-.43-6.94-.96-3.01-.89-4.65,1.39-9.68,12.11-26.49,18.41-52.54,19.26-79.64.33-13.28-1.44-27.87-4.86-40.07-1.71-5.75-1.62-6.42-.32-10.69ZM217.62,176.43c-.35,11.01-1.61,21.84-3.83,32.61,1.66-9.24,2.54-19.2,2.54-31.05,0-20.33-1.4-40.76-11.56-52.46l-.33-.31c-.16-.12-.28-.22-.37-.29.66-1.15,2.8-1.88,6.35-2.16.54-.04,1.89-.13,2.77-.1-.16.62-.42,1.42-.54,1.78-1.63,5.33-1.59,6.94.28,13.24,3.3,11.77,5.01,25.89,4.69,38.74ZM194.03,270.48c.2-.95.97-3.56,2.36-7.44.04,1.36.32,2.73.82,4.31.61,1.55.74,2.66.7,3.19-.8.13-2.24.14-3.89-.06Z"/><path d="M259.2,120.59c4.43,9.42,6.67,19.98,6.49,30.54l2.28.04c.19-10.9-2.13-21.81-6.7-31.55-3.43-7.3-8.08-13.94-13.8-19.72l-1.62,1.6c5.54,5.6,10.04,12.02,13.36,19.09Z"/><path d="M154.63,133.85l2.65.05c.22-12.69-2.48-25.38-7.8-36.71-3.99-8.5-9.4-16.22-16.06-22.95l-1.89,1.87c6.45,6.51,11.68,13.99,15.55,22.21,5.15,10.97,7.76,23.25,7.55,35.54Z"/><path d="M32.56,195.32l-2.46-.99c-5.16,12.86-10.53,33.38-6.85,58.03,2.59,17.35,9.38,34.09,19.65,48.44l2.16-1.55c-10.02-14-16.66-30.36-19.18-47.29-3.59-24.07,1.66-44.09,6.69-56.66Z"/><path d="M273.59,54.75c-1.84,1.15-3.2,1.6-5.79,1.91-2.92.35-5.43.21-9.07-.16-.92-.12-1.6-.15-2.11-.09,0,.08.01.18.03.32.12,1.06.48,2.28.7,2.88.11.08.28.11.72.06.43-.05.97-.19,1.85-.47,2.48-.9,5.97-1.66,9.52-2.08,4.03-.48,7.43-.22,10.21.65,1.81-3.46,4.47-6.22,7.68-7.86.22-.11.42-.21.59-.29-3.2-2.14-5.95-4.82-8.1-7.96-.8-1.19-1.45-2.42-2.02-3.65-.99.58-2.06,1.12-3.29,1.56,1.66,1.5,2.95,3.91,3.2,6.03.42,3.52-1.4,7.54-4.15,9.16Z"/><path d="M481.82,43.39c-.11,3.2-.23,5.29-.47,6.57-.09.49-.2,1.08-.23,1.37.24.2.53.28,2,.28,1.09-.1,1.67-.19,2.1-.36.7-.34.78-.38.78-3.87,0-4.41-2.02-13.31-5.02-16.83.64,3.18.93,7.66.84,12.84Z"/><path d="M572.75,40.25c-.18-.68-.15-1.29.04-2.19-.15.03-.27.05-.35.07-.69.14-1.15.29-1.46.41.66.5,1.24,1.08,1.77,1.71Z"/><path d="M307.71,57.29c.43.26,1.11.1,1.47-.02,1.01-.39,1.01-.56,1.01-1.11,0-.44-.05-.55-.06-.57-.07-.02-.52-.15-2.21-.15-.34,0-.67,0-1.01-.01.05.13.09.28.13.43.09.58.26,1.19.67,1.44Z"/><path d="M374.98,35.69c-.26,0-.5.01-.78,0h-1.12v10.12c0,2.03,0,3.82,0,5.44.26-5.5.87-10.84,1.85-15.34.02-.07.04-.14.05-.21Z"/><path d="M329.45,38.26c-1.5,1.24-3.16,2.28-4.94,3,3.07.94,5.75,2.97,7.79,5.44,0-2.76.06-5.54.18-7.48.04-.53.07-1.02.08-1.45-.12.03-.24.05-.37.08-.89.23-1.8.35-2.74.42Z"/><path d="M304.86,32.33s-.09.05-.15.1c.07.01.15.03.23.04,0,0,0-.02,0-.03,0-.01-.02-.06-.04-.12-.01,0-.02,0-.03,0Z"/><path d="M609.72,57.53c-.45-4.68-2.09-10.55-4.18-14.94-5.98-12.75-16.5-20.81-28.82-22.1-2.6-.35-5.02-.35-7.37-.01-3.07.45-6.2,1.54-9.83,3.45-5.9,3.13-10.76,8.2-14.17,14.43l-.87-5.37c-1.23-7.79-2.21-13.97-2.41-15.16-.45-2.7-.5-2.98-1.45-4.75-1.22-1.92-2.15-3.13-3.85-4.44h-.01c-4.39-3.32-10.5-4.26-17.66-2.71-8.5,1.81-12.47,6.47-14.32,12.09-4.29-5.98-10.4-10.67-19.17-12.17-1.82-.22-3.2-.33-12.33-.33-10.35,0-10.55,0-12.16.47-6.49,1.84-10.74,6.84-12.28,14.45-.04.18-.07.41-.11.67-.12-.19-.23-.4-.35-.58-4.81-6.62-9.76-9.33-17.08-9.33-3.03,0-5.18.24-7.82,1.47-.05.02-4.99,2.3-4.99,3.76,0,.84,1.04,1.89,1.05,1.89.19.25.38.51.56.77-4.51-5.2-10.97-8.03-18.99-8.03-4.1,0-7.85.89-11.17,2.59-.1-.83-.23-1.61-.4-2.27-1.17-4.88-4.69-8.87-8.92-10.14l-1.32-.46-25.76-.07c-20.45,0-25.84,0-26.77.13-1.22.21-2.56.78-3.87,1.56-2.42-1.13-5.07-1.91-7.93-2.19-9.68-1.01-19.65,1.59-27.37,7.12-3.75,2.72-6.64,5.89-8.65,9.31-1.82-1.43-4.11-2.39-6.92-2.79l-1.8-.3-11.87,1.41q-11.73,1.39-13.48,2c-6.05,2.12-10.11,6.76-11.73,13.42-1.93,8.09-1.31,21.2,1.66,35.08h0c.86,3.97,1.71,7.18,2.24,8.5,1.4,4.28,6.07,9.13,11.11,9.5.04,0,.09,0,.16,0,.74,0,3.51-.31,15.07-1.68l14.27-1.69,1.48-.59c1.42-.58,2.68-1.33,3.77-2.2,1.21.8,2.58,1.37,4.08,1.63.58.12,3.82.13,14.65.13,11.47,0,13.85-.1,15.1-.35,7.29-1.5,12.14-4.31,15.7-9.11.71-.94,1.31-1.95,1.83-3,2.3,8.76,6.57,14.09,12.98,16.15,1.43.37,2.35.49,4.68.61.83.04,1.64.06,2.43.06,3.67,0,6.82-.43,8.52-1.19,1.43-.61,4.34-3.61,5.43-5.36,2.13-3.11,3.64-7.15,4.15-11.02.25-1.42.4-3.12.49-6.13.12,5.29.58,10.43,1.4,14.79,1.92,10.25,8.88,34.23,31.86,35.58,1.9.14,3.75.21,5.56.21,11.11,0,20.41-2.6,27.7-7.76,6.91-4.86,11.34-11.19,14.38-20.53.63-1.87,1.15-3.84,1.62-5.84,2.98,3.71,6.88,6.17,11.38,6.89,1.13.24,3.62.24,11.86.24h10.41l1.96-.47c7.81-2.16,14.22-7.17,18.32-13.95,1.88,4.35,4.15,7.84,6.78,10.26,2.73,2.65,6.64,4.24,10.99,4.46.12,0,.23,0,.36,0,1.08,0,2.49-.24,5.98-.82,6.47-1.19,8.11-1.8,10.36-4.48.15.34.28.69.43,1.03,6.4,14.05,18.69,22.79,32.06,22.82.06,0,.12,0,.18,0,2.36,0,7.38-.87,9.25-1.6,18.79-6.6,25.55-26.36,23.91-43.01ZM576.41,99.65c-14.83-.03-25.12-11.05-29.81-21.35h0c-.36-.78-.69-1.59-1.01-2.41,2-3.19,3.21-6.81,3.58-11.1l.11-2.13-3.24-20.09c3.16-7.2,8.27-13.05,14.65-16.44,3.37-1.77,6.24-2.78,9.02-3.18,1.04-.15,2.1-.23,3.19-.23s2.3.08,3.53.25c11.47,1.2,21.26,8.74,26.86,20.68,1.98,4.16,3.53,9.7,3.95,14.12,1.54,15.68-4.74,34.26-22.3,40.43-1.65.65-6.53,1.5-8.53,1.45ZM527.31,81.11c-3.69-.19-7.11-1.56-9.4-3.78-2.76-2.54-5.11-6.37-6.99-11.26.92-1.92,1.72-3.93,2.28-6.07,1.61-6.06,1.65-11.47.13-19.94-1.12-6.28-3.14-13.23-6.72-19.27,1.39-6.29,4.83-10.69,13.03-12.42,2.07-.45,4.04-.67,5.88-.67,3.87,0,7.17.98,9.74,2.92,1.41,1.09,2.18,2.1,3.22,3.72q.71,1.33,1.14,3.91c.2,1.19,1.18,7.36,2.4,15.14l4.74,29.42-.1,1.82c-.38,4.45-1.71,8.14-4.04,11.26-2.17,2.79-2.71,3.19-9.54,4.45-3.57.6-4.9.83-5.78.78ZM478.71,81.16c-7.43,0-10.51,0-11.47-.2-5.38-.86-8.9-4.11-11.18-7.55.36-1.86.64-3.75.86-5.67.52,1.27,1.36,2.65,2.69,3.89,1.29,1.2,2.91,2.11,4.67,2.62l.3-1.03c-1.6-.47-3.07-1.29-4.24-2.38-2.24-2.08-2.92-4.58-3.12-6.09,1.17-14.38-1.17-29.66-6.55-40.25.07-1.98.16-3.09.27-3.64,1.39-6.88,5.01-11.19,10.78-12.82,1.3-.38,1.51-.39,11.56-.39,9.01,0,10.34.11,12.02.31,17.16,2.94,23.56,19.28,25.91,32.47,1.45,8.14,1.43,13.29-.09,19.03-2.72,10.53-10.42,18.5-20.57,21.31l-1.68.4h-10.16ZM406.36,107.96c-21.49-1.26-28.07-24.09-29.9-33.84-2.04-10.79-1.8-27.02.55-37.75.06-.25.13-.52.19-.79,1.55-.17,2.93-.56,4.52-1.28,4.11-2.03,6.93-5.91,7.95-10.93.43-2.08.58-4.88.46-7.45,2.99-1.68,6.6-2.73,10.98-2.73,14.63,0,23.63,10.41,24.09,27.83.14,6.09-.42,10.36-2.07,15.82l-.27,1.08-.81.24-5.67,2.79h4.58s1.72,0,3.82-.14l11-.44-9.14-2.27c-.24-.06-.52-.14-.7-.2.05-.45.37-1.46.73-2.62l.08-.25c1.39-4.99,1.85-7.44,2-13.06,0-9.93-2.52-18.32-7.58-25.06-.1-.1-.18-.19-.25-.28.78-.57,2.3-1.54,3.45-2.01,2.09-.98,3.78-1.29,6.96-1.29,6.63,0,10.94,2.37,15.32,8.41,9.24,13.84,11.57,40.58,5.18,59.61-2.89,8.87-7.07,14.87-13.58,19.45-8.06,5.7-18.79,8.11-31.88,7.16ZM370.63,45.81c0,12.93-.12,16.97-.59,19.66-.46,3.5-1.86,7.24-3.77,10.05-1.02,1.63-3.62,4.14-4.36,4.46-1.41.63-5.01,1.16-9.85.93-2.28-.11-3.01-.23-4.11-.52-6.31-2.03-10.3-7.98-12.1-18.08.73-3.07.74-6.28-.11-9.23-.23-.83-.57-1.67-.96-2.49-.08-3.73-.03-8.38.14-11.22.13-1.65.12-3.07.12-3.07v-1.23h-1.23c-.22,0-.8.08-1.48.22,1.71-2.18,2.97-4.7,3.53-7.45.61-3.01.02-8.79-1.25-12.35-1.71-5.03-4.93-9.02-9.14-11.7.58-.26,1.16-.45,1.68-.54.8-.1,9.35-.1,26.39-.1h25.15l1.17.41c3.94,1.19,6.5,5.07,7.3,8.39v.02c.71,2.7.76,7.79.11,10.91-.87,4.26-3.23,7.54-6.6,9.21-2.13.97-3.73,1.26-6.43,1.15h-3.62v12.57ZM287.46,76.47c-.97-.16-1.86-.51-2.68-.98.93-1.11,1.64-2.34,2.09-3.68.11-.31.17-.61.26-.92,1.53.65,3.08.81,4.27.81.93,0,1.63-.1,1.93-.15l-.21-1.23c-.62.11-3.25.44-5.7-.68.29-1.75.18-3.46-.35-4.97-.86-2.66-2.63-4.63-5.09-5.95,1.56-2.89,3.81-5.22,6.49-6.59.23-.12.54-.27.77-.37.34.12,1.05.42,1.99.93,3.9,1.82,8.38,3.06,12.32,3.4.81.05,1.02.15.99.12,0,0,.03.06.06.13.27,1.79,1.13,2.66,1.81,3.08.67.41,1.84.79,3.62.2,1.39-.53,2.67-1.32,2.67-3.46,0-3.22-2.53-3.22-4.77-3.22-10.87,0-20.6-4.74-26.01-12.68-.81-1.21-1.47-2.45-2.01-3.71,3.02-2.57,4.36-6.06,3.84-10.42-.37-3.13-1.37-5.64-2.92-7.61,1.83-3.36,4.59-6.49,8.26-9.15,7.23-5.18,16.57-7.61,25.66-6.66,8.36.81,14.91,5.89,17.53,13.62,1.11,3.12,1.68,8.48,1.16,11.04-1.45,7.11-8.16,12.67-15.27,12.67-3.35,0-5.83-.94-7.99-2.99-1.02-1.09-2.32-2.85-2.79-5.17-.44-1.59-1.05-2.38-3.14-1.95-1,.33-2.39,1.46-2.39,2.72s1.18,2.16,2.94,2.33c.04,0,.08.01.11.01.09.17.24.45.4.77,2.11,3.83,4.54,5.91,8.02,6.91,1.65.63,3.27.74,7.49.52,6,0,11.09,5.38,12.54,10.58,1.35,4.74.25,10.23-2.88,14.34-3.18,4.28-7.56,6.8-14.2,8.16-1.01.2-3.55.3-14.6.3-6.62,0-13.47,0-14.19-.09ZM278.17,77.2l-.98.43-14.08,1.67c-6.9.82-14.03,1.66-14.68,1.67-3.89-.29-7.85-4.34-9.01-7.87-.5-1.24-1.34-4.45-2.14-8.17-2.85-13.33-3.49-26.35-1.67-33.97,1.43-5.88,4.84-9.79,10.13-11.65q1.49-.52,12.95-1.87l11.51-1.36,1.47.25c5.75.83,8.89,4.13,9.59,10.09.72,6.1-2.98,10.06-10.97,11.74-2.65.49-3.88.64-8.94.87-2.16.06-3.54.14-4.47.25-1.59.19-2.42.53-3.24,1.4-.48.6-.74,1.19-.5,2.08.05.35.14.82.58,1.17.51.4,1.06.34,1.48.27.76.05,1.51-.27,3.11-.95l.64-.26c1.09-.44,2.42-.95,2.68-.93.87,0,9.53-1.03,10.35-1.23.03,0,.05-.02.08-.02.11.07.24.17.42.29,1.36,1,2.58,3.1,2.78,4.79.31,2.57-1.01,5.58-2.96,6.73-1.38.86-2.36,1.27-4.78,1.56-2.39.28-4.54.24-8.49-.16-1.13-.14-2-.17-2.74-.08-.92.11-1.55.49-1.89,1.14-.32.6-.29,1.29-.21,1.94.17,1.41.66,3.05.96,3.76l.2.33c.75.88,1.69,1.2,3.03,1.04.61-.07,1.28-.24,2.36-.59,2.32-.84,5.68-1.57,9-1.96,4.69-.56,12.88-.54,14.97,5.89.58,1.62.51,3.57-.19,5.52-.9,2.69-3.14,4.89-6.34,6.21ZM277.73,45.59c-.25-2.12-1.55-4.52-3.2-6.03,1.23-.44,2.3-.98,3.29-1.56.57,1.23,1.22,2.45,2.02,3.65,2.14,3.14,4.9,5.82,8.1,7.96-.17.08-.37.18-.59.29-3.21,1.64-5.87,4.4-7.68,7.86-2.78-.87-6.19-1.13-10.21-.65-3.55.42-7.03,1.18-9.52,2.08-.88.28-1.41.42-1.85.47-.44.05-.61.02-.72-.06-.22-.6-.58-1.82-.7-2.88-.02-.13-.03-.24-.03-.32.51-.06,1.19-.03,2.11.09,3.64.37,6.15.51,9.07.16,2.59-.31,3.95-.75,5.79-1.91,2.74-1.62,4.56-5.65,4.15-9.16ZM306.91,55.42c.34,0,.67.01,1.01.01,1.7,0,2.15.13,2.21.15,0,.01.06.13.06.57,0,.55,0,.72-1.01,1.11-.36.12-1.04.29-1.47.02-.4-.25-.57-.85-.67-1.44-.04-.15-.08-.29-.13-.43ZM332.47,39.21c-.12,1.95-.17,4.72-.18,7.48-2.03-2.46-4.71-4.5-7.79-5.44,1.79-.72,3.45-1.76,4.94-3,.94-.07,1.85-.19,2.74-.42.12-.03.25-.06.37-.08-.02.43-.04.93-.08,1.45ZM304.94,32.47c-.08-.01-.16-.03-.23-.04.06-.05.12-.09.15-.1.01,0,.02,0,.03,0,.02.06.03.11.04.12,0,0,0,.02,0,.03ZM373.08,45.81v-10.12h1.12c.28.01.52,0,.78,0-.02.07-.04.14-.05.21-.99,4.5-1.6,9.84-1.85,15.34,0-1.62,0-3.41,0-5.44Z"/><path d="M575.81,40.98c-.79-1.44-.79-1.46-.52-2.66.18-.7.43-1.65-.24-2.36-.71-.75-1.77-.54-3.11-.28-1.66.35-3.42.9-3.97,2.58-.24,1.33.68,1.82,1.19,2.04,3.67,2.56,4.94,8.11,5.75,13.73,1.25,8.63.05,13.76-2.8,22.61-.02.05-1.81,5.17-1.65,6.32h0c.15,1.02.61,1.46,1.8,1.57.41,0,1.83-.06,2.65-.4.53-.19.93-.6,1.09-1.12.24-.74.01-1.66-.58-2.49-.33-.56-.46-.79.16-2.35,3.48-8.69,4.75-16.94,3.88-25.21-.46-4.08-1.79-8.43-3.66-11.98ZM572.79,38.06c-.19.9-.22,1.51-.04,2.19-.53-.63-1.12-1.21-1.77-1.71.31-.12.77-.27,1.46-.41.08-.02.21-.04.35-.07ZM573.38,81.95c-.08.01-.17.02-.27.03.03-.11.05-.22.08-.34.04.08.08.15.13.23.02.03.04.05.05.08ZM572.96,82.72s0,.02,0,.03h-.01s0-.02,0-.03Z"/><path d="M592.3,37.84c-2.1-2.78-4.84-5.09-7.93-6.68l-.57,1.11c2.92,1.51,5.52,3.69,7.5,6.32,1.97,2.6,3.36,5.67,4.02,8.87l1.22-.25c-.7-3.38-2.16-6.62-4.24-9.37Z"/><path d="M554.8,76.49l-1.22.28c.77,3.34,2.34,6.45,4.53,9,1.56,1.81,3.42,3.33,5.53,4.52l.61-1.09c-1.98-1.12-3.73-2.54-5.2-4.24-2.07-2.39-3.54-5.32-4.26-8.46Z"/><path d="M529.2,13.14l-.51,1.14c1.44.64,2.66,1.56,3.63,2.73,2.45,2.96,2.38,6.49,2.23,7.87l1.24.13c.16-1.54.25-5.47-2.51-8.8-1.09-1.32-2.46-2.35-4.08-3.07Z"/><path d="M515.05,60.06l-1.21.31c.84,3.32,2.48,6.4,4.73,8.89,1.6,1.78,3.5,3.25,5.63,4.39l.59-1.1c-2-1.07-3.78-2.46-5.29-4.13-2.12-2.35-3.66-5.24-4.45-8.36Z"/><path d="M480.76,27.58c-.71-.34-1.31-.33-1.78.04-.74.59-.5,1.64-.41,2.03v.04c.81,2.95,1.21,7.93,1.1,13.64-.11,3-.22,5.09-.44,6.23-.35,1.92-.46,2.5.31,3.24.88.84,1.7.94,3.54.94h.12c1.21-.11,2.05-.22,2.85-.53,1.99-.95,2.08-2.08,2.08-5.84,0-5.23-2.58-16.94-7.39-19.8ZM485.22,51.25c-.44.17-1.01.26-2.1.36-1.47,0-1.76-.08-2-.28.03-.29.14-.89.23-1.37.24-1.27.36-3.36.47-6.57.1-5.19-.2-9.67-.84-12.84,3.01,3.52,5.02,12.42,5.02,16.83,0,3.49-.08,3.53-.78,3.87Z"/><path d="M496.29,20.65c1.76,2.16,3.01,4.71,3.64,7.39l1.04-.24c-.66-2.83-1.99-5.54-3.85-7.82-1.87-2.3-4.3-4.2-7.02-5.49l-.46.97c1.79.85,4.41,2.45,6.64,5.2Z"/><path d="M417.19,38.67l1.15.07c.19-3.23-.32-6.52-1.47-9.51-1.16-3.02-3-5.79-5.3-7.99l-.79.83c2.18,2.09,3.92,4.71,5.02,7.57,1.1,2.84,1.58,5.97,1.4,9.03Z"/><path d="M443.61,37.79l1.15.07c.19-3.23-.32-6.52-1.47-9.51-1.16-3.02-3-5.79-5.3-7.99l-.79.83c2.18,2.09,3.92,4.7,5.03,7.57,1.1,2.85,1.58,5.97,1.4,9.03Z"/><path d="M390.65,92.96c-2.54-3.23-4.34-6.84-5.35-10.74l-1.04.27c1.05,4.04,2.92,7.78,5.55,11.13,1.96,2.5,4.32,4.72,7,6.61l.62-.87c-2.6-1.83-4.87-3.98-6.77-6.4Z"/><path d="M379.36,11.84c2.16,2.96,1.36,6.22,1.18,6.84l1.18.34c.21-.72,1.12-4.48-1.37-7.9-2.87-3.94-7.62-3.95-8.17-3.94l.03,1.22c.19,0,4.6-.06,7.15,3.44Z"/><path d="M341.55,56.68l-1.22-.1c-.29,3.54.12,7.04,1.24,10.41,1.02,3.07,2.58,5.92,4.64,8.46l.95-.77c-1.97-2.43-3.46-5.15-4.43-8.08-1.06-3.21-1.46-6.55-1.18-9.92Z"/><path d="M319.34,8.49l-.56,1.12c1.7.85,4.14,2.45,6.15,5.23,2.07,2.86,2.82,5.76,3.08,7.69l1.24-.17c-.28-2.08-1.08-5.19-3.3-8.26-2.16-2.98-4.78-4.7-6.61-5.62Z"/><path d="M271.83,22.7c1.82,1.39,1.98,3.55,1.99,3.97l1.25-.04c-.02-.52-.21-3.19-2.49-4.92-1.89-1.44-4.46-1.69-6.71-.64l.53,1.13c1.82-.85,3.9-.66,5.42.5Z"/><path d="M246.92,73.24c-1.74-1.09-2.46-3.09-3-5.77l-1.22.25c.52,2.59,1.32,5.18,3.56,6.58,1.38.86,2.66,1.28,4.12,1.28.76,0,1.58-.11,2.49-.33l-.29-1.21c-2.31.56-3.84.35-5.65-.79Z"/></g></svg>